inDegrees=no
num_controls=7
num_derivatives=13
num_iterations=84
num_multipliers=7
num_parameters=0
num_slacks=7
num_states=26
objective=0.333884
objective_accelerations=0.037581
objective_balance=0.001362
objective_effort=0.027414
objective_height=0.266055
objective_ligament=0.001471
solver_duration=870.738839
status=Solve_Succeeded
success=true
DataType=double
version=3
OpenSimVersion=4.5
endheader
time	/jointset/ground_pelvis/pelvis_tilt/value	/jointset/ground_pelvis/pelvis_tx/value	/jointset/ground_pelvis/pelvis_ty/value	/jointset/hip_r/hip_flexion_r/value	/jointset/hip_r/hip_adduction_r/value	/jointset/hip_r/hip_rotation_r/value	/jointset/back/lumbar_extension/value	/jointset/patellofemoral_r/patellar_flexion_r/value	/jointset/knee_r/knee_flexion_r/value	/jointset/knee_r/knee_adduction_r/value	/jointset/knee_r/knee_rotation_r/value	/jointset/ankle_r/ankle_angle_r/value	/jointset/subtalar_r/subtalar_angle_r/value	/jointset/ground_pelvis/pelvis_tilt/speed	/jointset/ground_pelvis/pelvis_tx/speed	/jointset/ground_pelvis/pelvis_ty/speed	/jointset/hip_r/hip_flexion_r/speed	/jointset/hip_r/hip_adduction_r/speed	/jointset/hip_r/hip_rotation_r/speed	/jointset/back/lumbar_extension/speed	/jointset/patellofemoral_r/patellar_flexion_r/speed	/jointset/knee_r/knee_flexion_r/speed	/jointset/knee_r/knee_adduction_r/speed	/jointset/knee_r/knee_rotation_r/speed	/jointset/ankle_r/ankle_angle_r/speed	/jointset/subtalar_r/subtalar_angle_r/speed	/forceset/tau_hip_flexion_r	/forceset/tau_hip_adduction_r	/forceset/tau_hip_rotation_r	/forceset/tau_knee_flexion_r	/forceset/tau_ankle_angle_r	/forceset/tau_subtalar_angle_r	/forceset/tau_lumbar_extension	lambda_cid13_p0	lambda_cid14_p0	lambda_cid14_p1	lambda_cid14_p2	lambda_cid14_p3	lambda_cid14_p4	lambda_cid14_p5	/jointset/ground_pelvis/pelvis_tilt/accel	/jointset/ground_pelvis/pelvis_tx/accel	/jointset/ground_pelvis/pelvis_ty/accel	/jointset/hip_r/hip_flexion_r/accel	/jointset/hip_r/hip_adduction_r/accel	/jointset/hip_r/hip_rotation_r/accel	/jointset/back/lumbar_extension/accel	/jointset/patellofemoral_r/patellar_flexion_r/accel	/jointset/knee_r/knee_flexion_r/accel	/jointset/knee_r/knee_adduction_r/accel	/jointset/knee_r/knee_rotation_r/accel	/jointset/ankle_r/ankle_angle_r/accel	/jointset/subtalar_r/subtalar_angle_r/accel	gamma_cid13_p0	gamma_cid14_p0	gamma_cid14_p1	gamma_cid14_p2	gamma_cid14_p3	gamma_cid14_p4	gamma_cid14_p5
0	-0.00942744319289936	0.1329483753018788	0.9328743344114129	0.1934211968871041	-0.2338969763453298	-0.2345747035632828	-0.2903787966825928	0.2311786273363398	0.2311786273363406	0.1455048404937512	0.1698900498538355	0.089344008118978	0.0566852641527207	0	0	0	0	0	0	0	0	0	0	0	0	0	0.1140116774462951	-0.04471277385640474	0.0042603835513803	-0.2570543312416841	0.1416366299998366	-0.1214817831636399	-0.03313584061088823	-29.86833919190328	-2.450280179272794	-48.5685462019368	2.88791585686627	-1.334721315026671	-610.4809689542564	22.74708351796465	-2.190316157160278	-1.872280807181958	-0.8548016741707328	10.44077600959807	0.2643414966644113	2.244046715663732	-6.337941810470471	10.24785988599063	10.24785988599063	-3.178503991704998	0.3540443080599588	2.818700498994165	1.09754241966803	6.269822916292022e-08	4.692460399489545e-08	-4.243228057835192e-07	3.081093450909418e-07	9.457178762006937e-09	2.227133147799149e-07	-3.703738934913243e-07
0.01	-0.009531186022263067	0.1328567958629581	0.9328328184210976	0.1939298398513107	-0.23388121392971	-0.2344621160544202	-0.2906967550765139	0.2316814558001428	0.2316814558001428	0.1453430706935262	0.1699032554872886	0.08948408061192464	0.05674303910299505	-0.02070597230725973	-0.01813370856732943	-0.008280062697053132	0.1011806328614816	0.003133581411870401	0.0223932667378663	-0.06312930306086006	0.1000721647271255	0.1000721647271251	-0.03218213366202023	0.002621805579919236	0.0279863311736651	0.01152754038897847	0.1126129617780867	-0.06316633067488613	0.004319150018278851	-0.2596573822319312	0.1432642961494553	-0.1071266894453825	-0.03099212833387536	-29.87332965748517	-1.21232790048119	-41.93315370893423	1.619629887443011	-4.060270320870297	-612.1807626133585	36.94289573614143	-2.004350642593868	-1.756587107110508	-0.8110937199379976	9.874514376990318	0.3350194938809297	2.21839471016679	-6.231068195659159	9.812853021463047	9.81285302146304	-3.212333133834404	0.2134119573138513	2.784384379441885	1.176211725688115	8.050911828928049e-08	3.761926798246841e-08	-5.130482417797969e-07	4.095221197605896e-07	3.10421748575058e-08	1.00395061885868e-07	-4.931592029045803e-07
0.02	-0.009840711149714748	0.132589345093244	0.9327092047733182	0.1954338506346518	-0.2338346850938852	-0.2341293102667165	-0.2916321352293962	0.2331701975622908	0.2331701975622916	0.1448646265406017	0.1699421118314226	0.08990317340718626	0.05691525983259426	-0.04115645961793438	-0.03517426615864846	-0.01641953149283996	0.1990735638256594	0.006153284041046824	0.04404365576848222	-0.1234843517923605	0.1971826596698347	0.1971826596698349	-0.06333487053940121	0.005130142134072501	0.0558040604629035	0.02288915586497558	0.1112142461099089	-0.08161988749336696	0.004377916485220625	-0.26226043322218	0.1448919622990716	-0.09277159572712519	-0.02884841605683415	-29.88781752608289	0.1062543623181705	-35.30697714013139	0.3794672539292087	-6.70794379774538	-612.5474324080083	50.79458651969961	-2.139219157843419	-1.653650611979721	-0.8266828939174832	9.783235630137302	0.2415657401256245	2.095471174213663	-5.783090944598634	9.655525929107364	9.655525929107588	-2.972624634777171	0.3313505029067451	2.784980122109016	1.064357437071824	9.832000741564077e-08	2.831393197004137e-08	-6.017736777760747e-07	5.109348944302375e-07	5.262717095300466e-08	-2.192319100817893e-08	-6.159445123178364e-07
0.03	-0.01035330332001719	0.1321557951263787	0.932504581138845	0.1979019279476993	-0.2337588142659575	-0.2335846202669011	-0.2931571611789524	0.235615986210142	0.235615986210138	0.1440802860308792	0.1700064526229967	0.0905983341736014	0.05719960601990268	-0.06126297181420001	-0.05146879473658991	-0.02450621636188809	0.2941085698134011	0.009000920785441045	0.0648166939425307	-0.1810992553765224	0.2915366927399489	0.2915366927399453	-0.09335523298831487	0.007663339332662725	0.08308273288334027	0.03392079623607114	0.1046285780540419	-0.08099139596334348	0.005141224269237816	-0.2546540245719718	0.1340978641578081	-0.08813093561341719	-0.02356590657336667	-29.91116879442901	-3.1135339529718	-33.71614116411825	-0.03310859976884501	-5.102700022323273	-612.80923319486	52.80635257170525	-1.931510750330919	-1.607303495937533	-0.7998193062951284	9.298638602187349	0.3033785753899522	2.056671886653702	-5.687452654237996	9.25956568600677	9.259565686006061	-2.990084800997803	0.2032011037789945	2.677516094002184	1.113640874901773	1.155237490906615e-07	2.964427864565404e-08	-6.895734250728641e-07	5.933693372766068e-07	6.381844642938873e-08	-8.428063370779733e-08	-7.110046133687598e-07
0.04	-0.0110639893122432	0.1315613099706872	0.9322190590511013	0.2013073564244505	-0.2336550638838303	-0.232834509535819	-0.2952456886821334	0.2389921599266972	0.2389921599266968	0.1430010733464964	0.1700939047416516	0.09156192272261722	0.05759248331847672	-0.08077522400299036	-0.06736130392389397	-0.03259922214697848	0.3865437965649385	0.01172919488157678	0.08512780202271071	-0.2361846625172293	0.3832596734117971	0.383259673411788	-0.1223093054792116	0.009752407549002334	0.1094896169834269	0.04459537811810594	0.09804290999822114	-0.08036290443329459	0.005904532053301889	-0.2470476159217515	0.1233037660165554	-0.08349027549967565	-0.01828339708987011	-29.94217757412324	-6.259487260478124	-32.13226664236562	-0.4218557765643001	-3.435728180509256	-611.8623528518884	54.50793475802727	-2.020367156348498	-1.573246733852082	-0.8279470771259446	9.263279782896461	0.2176932104739346	2.003085155439975	-5.277191655907697	9.129315449454175	9.129315449454046	-2.759366643173812	0.2425247064565998	2.610622458039187	0.992945739259733	1.32714972261531e-07	3.119391774782423e-08	-7.773540860047157e-07	6.75412474312187e-07	7.479541838785288e-08	-1.454017710425822e-07	-8.054930606390166e-07
0.05	-0.01196750698522145	0.1308102429329936	0.9318522891310678	0.2056242466833349	-0.2335253719796337	-0.2318850042802636	-0.2978719435751764	0.2432723994200837	0.2432723994200799	0.1416392458922461	0.1702015771219669	0.09278523972142917	0.05808946039020536	-0.09984955539238773	-0.08275071704963653	-0.04077545726971869	0.4763555094147588	0.01414631208037657	0.1046043431037033	-0.2886486773387818	0.4723254072036551	0.4723254072036401	-0.1497782156075206	0.01179432349867072	0.1350369757792589	0.05469398805856636	0.09247289921301496	-0.07426354507888026	0.006336023099610058	-0.2427616860768997	0.1187524327763695	-0.08404320658135185	-0.01367413595942047	-29.9795742804825	-7.681934735809283	-32.66420519399404	-0.2882304661194613	-3.132564931892198	-611.1609985623631	51.8537468143242	-1.839141706446894	-1.506565568949923	-0.8155956156397538	8.768312760253162	0.2443083876758272	1.894733127934827	-5.168360582701585	8.725752952922614	8.725752952921809	-2.699010692072925	0.1869925197733839	2.506283777938745	1.00236978996119	1.065275067555617e-07	1.337528414254378e-08	-5.69441291660047e-07	5.908097505827196e-07	6.643369641135317e-08	-2.302336234441858e-07	-6.630681101524407e-07
0.06	-0.01305940308733111	0.12990832637064	0.9314031300826481	0.210824893215576	-0.2333733914208335	-0.2307457747051995	-0.3010103094539172	0.248429406373159	0.2484294063731569	0.1400110578378239	0.1703300621579012	0.09425992854571678	0.05868423379504296	-0.1184509098302643	-0.09753120885588358	-0.04907704782422436	0.5632950512337194	0.01618692580289418	0.1230726659249339	-0.3386068596572593	0.5586131653503562	0.558613165350336	-0.175581425512373	0.01391493867039278	0.1597639820784363	0.06415464473990957	0.08690288842788119	-0.0681641857244684	0.006767514145972678	-0.2384757562320283	0.1142010995361873	-0.08459613766303023	-0.009064874828910083	-30.02179616158172	-9.039499689444851	-33.2055456315105	-0.1293906684293227	-2.781844608094723	-609.3895914172539	48.92280220052547	-1.925771766044454	-1.451462469952832	-0.8530181634790476	8.688845576724516	0.1423925152175031	1.801441503487591	-4.776025155292761	8.573720320422792	8.573720320422787	-2.426226598482515	0.2582645508673144	2.446551958708461	0.8653550874363507	7.851357014740974e-08	-5.258855681997747e-09	-3.490782465668933e-07	4.99190359031566e-07	5.725771363759181e-08	-3.160638217433397e-07	-5.106678587076825e-07
0.07000000000000001	-0.01433489691838464	0.1288615709758296	0.9308701425218364	0.2168808861683857	-0.2332029810816166	-0.2294270948879899	-0.3046361552395798	0.2544359039798827	0.2544359039798881	0.138133275885578	0.1704803535132059	0.09597787673617574	0.05937035913797006	-0.1365148365310441	-0.1117249924117497	-0.0575499699524556	0.647403931135999	0.01788325372287715	0.1405519110049578	-0.3862405911819447	0.6422466511138921	0.6422466511138876	-0.1998013579700349	0.01606009786107939	0.1837130862929998	0.07303547055728542	0.08099919492642808	-0.06905375864992655	0.007290102520866409	-0.2343168388537232	0.107804600635643	-0.07882882520670326	-0.004346444161036933	-30.067275002111	-10.66465039668388	-30.93415054986129	-0.5499995448584557	-2.429412478837978	-607.8403286954519	51.87639918988485	-1.726737975580075	-1.38909330353545	-0.8489193328077786	8.196974135130734	0.1815192160540119	1.704544345332309	-4.708791207366139	8.192191609044622	8.192191609046988	-2.393835994681857	0.1802456881771397	2.352203734487889	0.894210340661264	5.660319065327566e-08	-1.844158992307214e-08	-1.704588151297582e-07	4.408568465455775e-07	4.823294251126395e-08	-3.724860651455889e-07	-3.993094401443881e-07
